<svg width="24" height="24" viewBox="0 0 24 24" fill="none" xmlns="http://www.w3.org/2000/svg">
<path d="M6.66 17.52C5.76161 17.073 4.96983 16.438 4.33835 15.6581C3.70686 14.8782 3.25043 13.9717 3 13C5 13 6 12 6 10.49C6 6.57 8.25 3 13.38 3C18 3 21 6.51 21 11C21.0065 12.2943 20.7019 13.5712 20.112 14.7232C19.522 15.8753 18.664 16.8687 17.61 17.62" stroke="white" stroke-width="1.25" stroke-linecap="round" stroke-linejoin="round"/>
<path d="M10 18.6899C11.0977 18.8973 12.2129 18.9978 13.33 18.9899H13.87" stroke="white" stroke-width="1.25" stroke-linecap="round" stroke-linejoin="round"/>
<path d="M14 19C14 19.5304 14.2107 20.0391 14.5858 20.4142C14.9609 20.7893 15.4696 21 16 21C16.5304 21 17.0391 20.7893 17.4142 20.4142C17.7893 20.0391 18 19.5304 18 19C18 18.4696 17.7893 17.9609 17.4142 17.5858C17.0391 17.2107 16.5304 17 16 17C15.4696 17 14.9609 17.2107 14.5858 17.5858C14.2107 17.9609 14 18.4696 14 19Z" stroke="white" stroke-width="1.25" stroke-linecap="round" stroke-linejoin="round"/>
<path d="M6 19C6 19.5304 6.21071 20.0391 6.58579 20.4142C6.96086 20.7893 7.46957 21 8 21C8.53043 21 9.03914 20.7893 9.41421 20.4142C9.78929 20.0391 10 19.5304 10 19C10 18.4696 9.78929 17.9609 9.41421 17.5858C9.03914 17.2107 8.53043 17 8 17C7.46957 17 6.96086 17.2107 6.58579 17.5858C6.21071 17.9609 6 18.4696 6 19Z" stroke="white" stroke-width="1.25" stroke-linecap="round" stroke-linejoin="round"/>
<path d="M16 9H16.01" stroke="white" stroke-width="1.25" stroke-linecap="round" stroke-linejoin="round"/>
<path d="M11 9H11.01" stroke="white" stroke-width="1.25" stroke-linecap="round" stroke-linejoin="round"/>
</svg>
