<svg width="36" height="42" viewBox="0 0 36 42" fill="none" xmlns="http://www.w3.org/2000/svg">
<path d="M17.605 31.0145C12.6446 30.543 10.0112 26.169 10.0112 16.3064C10.0112 6.18524 12.3805 1.51248 17.7362 1.51248C23.267 1.51248 25.9888 6.22869 25.9888 16.3064C25.9888 24.6252 24.4961 29.3425 21.4236 30.543C21.204 30.6283 20.5019 30.8858 19.931 30.9716C20.5892 30.071 21.2919 27.7552 21.2919 25.5264C21.2919 23.0385 20.3701 20.0372 17.0335 20.0372C15.015 20.0372 13.5663 21.3659 13.5663 22.9956C13.5663 24.7105 14.7521 25.4401 16.332 25.8252C17.868 26.2114 18.8336 26.9844 18.8336 29.0845C18.8336 29.8569 18.3944 31.0569 18.3944 31.0569C18.087 31.0569 17.9113 31.0569 17.605 31.0145ZM8.25453 39.8049C6.89366 39.8049 6.10425 38.9477 6.10425 37.9612C6.10425 36.9752 7.06987 36.074 9.00112 36.074C11.1525 36.074 13.7425 37.0176 14.1806 37.4907C14.1806 37.4907 12.3372 39.8049 8.25453 39.8049ZM19.3161 32.0434C20.2384 32.001 20.9405 31.8717 21.6871 31.7435C28.3147 30.5001 35.8652 25.697 35.8652 16.2635C35.8652 6.05757 27.0856 0.483089 17.5606 0.483089C8.07942 0.483089 0.134827 5.80009 0.134827 16.2635C0.134827 25.8681 8.56195 30.7576 16.0251 31.9581C16.8145 32.0863 17.2098 32.1292 17.9997 32.1292C17.9997 32.1292 17.7801 32.5154 17.6484 32.7735C17.5172 33.0299 17.1219 33.5448 17.1219 33.5448L15.8923 33.0728C13.215 32.0863 11.5033 31.6572 8.60587 31.6572C4.91904 31.6572 2.10999 33.9729 2.10999 36.633C2.10999 39.3344 4.3042 41.0493 7.68416 41.0493C10.1424 41.0493 12.4245 40.3209 14.4007 38.6912L15.234 38.0041L16.3753 38.6473C19.2294 40.234 21.1162 41.6067 24.4517 41.6067C30.4216 41.6067 33.1873 38.2621 35.5577 33.6307C35.7773 33.2015 35.8207 32.7735 35.5577 32.6436C35.2942 32.5154 35.1186 32.6866 34.8551 33.1157C33.7138 35.0457 30.4661 36.1164 27.8761 36.1164C24.7596 36.1164 22.8284 35.86 19.931 34.703L18.1315 33.9729C18.3944 33.6307 18.614 33.3726 18.8336 32.9875C19.0098 32.6866 19.1849 32.3862 19.3161 32.0434Z" fill="white"/>
</svg>
