<?xml version="1.0" encoding="utf-8"?>
<!-- Svg Vector Icons : http://www.onlinewebfonts.com/icon -->
<!DOCTYPE svg PUBLIC "-//W3C//DTD SVG 1.1//EN" "http://www.w3.org/Graphics/SVG/1.1/DTD/svg11.dtd">
<svg version="1.1" xmlns="http://www.w3.org/2000/svg" xmlns:xlink="http://www.w3.org/1999/xlink" x="0px" y="0px" viewBox="0 0 256 256" enable-background="new 0 0 256 256" xml:space="preserve">
<metadata> Svg Vector Icons : http://www.onlinewebfonts.com/icon </metadata>
<g><g><path fill="#000000" d="M241.1,125.7c-3.8-4.3-9.2-6.8-15-6.8h-46.4c2.2-7,3.5-13.4,3.7-19c0.1-3.7-0.1-7-0.8-9.9c0.3,0,0.5-0.2,0.7-0.4L243,29.8c2-2,2-5.2,0-7.1l-9.7-9.7c-2-2-5.2-2-7.1,0l-59.7,59.7c-0.2,0.2-0.3,0.5-0.4,0.7c-3-0.7-6.3-1-9.9-0.8c-7.2,0.3-15.5,2.2-24.7,5.6c-16.2,6.1-33.5,16.6-43,26.1c-4.3,4.3-7.9,9.2-10.5,14.5H29.9c-5.8,0-11.2,2.5-15,6.8c-3.8,4.3-5.5,10.1-4.8,15.9c3.8,28.3,17.8,54.3,39.3,73.2c21.7,19.1,49.6,29.6,78.5,29.6s56.9-10.5,78.5-29.6c21.5-19,35.4-44.9,39.3-73.2C246.6,135.8,244.9,130.1,241.1,125.7z M84.5,132.1h4c-2,3.2-3.7,6.4-5.1,9.5C83.4,138.5,83.7,135.3,84.5,132.1z M154.6,118.9h-10L167,96.5c-1.9,4.6-4.8,10.3-8.6,16.4C157.2,114.9,155.9,116.9,154.6,118.9z M97.9,165.6l33.5-33.5h13.7c-4.6,6-9.3,11.5-13.3,15.5C119.5,159.9,105.9,166.1,97.9,165.6z M159.5,89l-29.9,29.9h-15.5c8.2-7.2,19-15.1,29-21.2C149.2,93.9,154.9,90.9,159.5,89z M116.4,132.1l-26,26c-0.1-2.6,0.4-5.7,1.6-9.2c1.9-5.5,5.1-11.2,9.4-16.8L116.4,132.1L116.4,132.1z M139.3,155.1c5.9-5.9,12.7-14.2,19-23h4.6c-5.4,11.1-12.4,21.7-18.7,27.9c-7.5,7.5-17,11.9-26.9,12.5c-0.7,0-1.5,0.1-2.2,0.1c-0.2,0-0.5,0-0.7,0C122.8,169,131.5,162.9,139.3,155.1z M167.2,118.9c0.5-0.8,0.9-1.5,1.4-2.3c0.6-0.9,1.1-1.8,1.6-2.7c-0.5,1.6-1,3.3-1.6,5H167.2L167.2,118.9z M96,111.8c8.4-8.4,24.5-18.1,39.3-23.6c2.4-0.9,4.7-1.7,6.9-2.3c-0.9,0.5-1.8,1-2.7,1.6c-13.8,8.2-29.3,20-38.6,29.3c-0.7,0.7-1.4,1.4-2.1,2.1h-8.6C91.9,116.4,93.8,114,96,111.8z M232.7,139.8c-1.5,10.8-4.6,21.1-9.1,30.6c-10.6,4.7-24.2,11.7-41.5,21c-25.3,13.6-55,14-93.1-15c-21.7-16.6-45.7-20.3-62.2-20.3c-1.6-5.2-2.8-10.6-3.5-16.2c-0.3-2,0.3-3.9,1.6-5.4c1.3-1.5,3.1-2.3,5-2.3h43.7c-0.4,2-0.6,4-0.7,6c-0.8,12.7,3.5,24.4,12,32.9c7.9,7.9,18.5,12.1,30.1,12.1c1,0,1.9,0,2.9-0.1c12.5-0.7,24.5-6.3,33.8-15.6c8-8,16.7-21.6,22.9-35.4h51.5c1.9,0,3.7,0.8,5,2.3C232.4,135.9,233,137.8,232.7,139.8z"/></g></g>
</svg>