<svg width="24" height="24" viewBox="0 0 24 24" fill="none" xmlns="http://www.w3.org/2000/svg">
<path d="M9.5 9.5C9.5 10.163 9.76339 10.7989 10.2322 11.2678C10.7011 11.7366 11.337 12 12 12C12.663 12 13.2989 11.7366 13.7678 11.2678C14.2366 10.7989 14.5 10.163 14.5 9.5C14.5 8.83696 14.2366 8.20107 13.7678 7.73223C13.2989 7.26339 12.663 7 12 7C11.337 7 10.7011 7.26339 10.2322 7.73223C9.76339 8.20107 9.5 8.83696 9.5 9.5Z" stroke="#F9F9F9" stroke-width="1.25" stroke-linecap="round" stroke-linejoin="round"/>
<path d="M6.42798 12.4939L13.742 3.24194" stroke="#F9F9F9" stroke-width="1.25" stroke-linecap="round" stroke-linejoin="round"/>
<path d="M10.0019 7.93501L7.06494 5.39001" stroke="#F9F9F9" stroke-width="1.25" stroke-linecap="round" stroke-linejoin="round"/>
<path d="M17.6929 6.59302L9.35693 16.572" stroke="#F9F9F9" stroke-width="1.25" stroke-linecap="round" stroke-linejoin="round"/>
<path d="M17.591 6.37604C18.063 7.28304 18.306 8.29004 18.3 9.31104C18.3041 10.4119 18.0579 11.4993 17.58 12.491C16.9813 13.5556 16.2818 14.5602 15.491 15.491C14.707 16.424 14.001 17.421 13.381 18.471C13.067 19.091 12.813 19.741 12.624 20.409C12.503 20.769 12.347 21 12.002 21C11.687 21 11.539 20.864 11.376 20.407C11.1833 19.7233 10.9224 19.0606 10.597 18.429C10.1718 17.6999 9.69633 17.0012 9.17403 16.338C8.29703 15.154 6.99503 13.803 6.32103 12.267C5.90216 11.3345 5.6903 10.3223 5.70003 9.30004C5.69289 7.81564 6.21636 6.37753 7.17603 5.24504C7.76399 4.54063 8.49983 3.97432 9.33131 3.58632C10.1628 3.19833 11.0695 2.99816 11.987 3.00004C12.637 2.99771 13.2836 3.09345 13.905 3.28404C14.6931 3.53061 15.4246 3.93079 16.0572 4.46147C16.6898 4.99216 17.2111 5.64287 17.591 6.37604Z" stroke="#F9F9F9" stroke-width="1.25" stroke-linecap="round" stroke-linejoin="round"/>
</svg>
